<svg width="379" height="66" viewBox="0 0 379 66" fill="none" xmlns="http://www.w3.org/2000/svg">
<path d="M83.285 31.15V35H65.225V31.955L74.955 22.715C76.0517 21.665 76.7867 20.755 77.16 19.985C77.5567 19.1917 77.755 18.41 77.755 17.64C77.755 16.4967 77.37 15.6217 76.6 15.015C75.83 14.4083 74.6983 14.105 73.205 14.105C70.7083 14.105 68.795 14.9567 67.465 16.66L64.28 14.21C65.2367 12.9267 66.52 11.935 68.13 11.235C69.7633 10.5117 71.5833 10.15 73.59 10.15C76.25 10.15 78.3733 10.78 79.96 12.04C81.5467 13.3 82.34 15.015 82.34 17.185C82.34 18.515 82.06 19.7633 81.5 20.93C80.94 22.0967 79.8667 23.4267 78.28 24.92L71.735 31.15H83.285ZM89.0179 29.435C89.8346 29.435 90.5112 29.7033 91.0479 30.24C91.5846 30.7767 91.8529 31.4767 91.8529 32.34C91.8529 32.7133 91.7946 33.11 91.6779 33.53C91.5846 33.9267 91.3746 34.5333 91.0479 35.35L89.2629 40.285H86.4279L87.8279 34.93C87.3146 34.72 86.9062 34.3933 86.6029 33.95C86.3229 33.4833 86.1829 32.9467 86.1829 32.34C86.1829 31.4767 86.4512 30.7767 86.9879 30.24C87.5246 29.7033 88.2012 29.435 89.0179 29.435ZM112.765 10.5V13.545L103.245 35H98.3801L107.585 14.35H97.9601V18.515H93.7251V10.5H112.765Z" fill="black"/>
<path d="M127.54 35.14C126.433 35.14 125.44 34.9067 124.56 34.44C123.68 33.9733 122.993 33.3267 122.5 32.5C122.007 31.66 121.76 30.7133 121.76 29.66C121.76 28.6067 122.007 27.6667 122.5 26.84C122.993 26.0133 123.673 25.3667 124.54 24.9C125.42 24.4333 126.42 24.2 127.54 24.2C128.593 24.2 129.513 24.4133 130.3 24.84C131.1 25.2667 131.7 25.88 132.1 26.68L130.18 27.8C129.873 27.3067 129.487 26.94 129.02 26.7C128.567 26.4467 128.067 26.32 127.52 26.32C126.587 26.32 125.813 26.6267 125.2 27.24C124.587 27.84 124.28 28.6467 124.28 29.66C124.28 30.6733 124.58 31.4867 125.18 32.1C125.793 32.7 126.573 33 127.52 33C128.067 33 128.567 32.88 129.02 32.64C129.487 32.3867 129.873 32.0133 130.18 31.52L132.1 32.64C131.687 33.44 131.08 34.06 130.28 34.5C129.493 34.9267 128.58 35.14 127.54 35.14ZM144.145 29.72C144.145 29.8933 144.132 30.14 144.105 30.46H135.725C135.872 31.2467 136.252 31.8733 136.865 32.34C137.492 32.7933 138.265 33.02 139.185 33.02C140.358 33.02 141.325 32.6333 142.085 31.86L143.425 33.4C142.945 33.9733 142.338 34.4067 141.605 34.7C140.872 34.9933 140.045 35.14 139.125 35.14C137.952 35.14 136.918 34.9067 136.025 34.44C135.132 33.9733 134.438 33.3267 133.945 32.5C133.465 31.66 133.225 30.7133 133.225 29.66C133.225 28.62 133.458 27.6867 133.925 26.86C134.405 26.02 135.065 25.3667 135.905 24.9C136.745 24.4333 137.692 24.2 138.745 24.2C139.785 24.2 140.712 24.4333 141.525 24.9C142.352 25.3533 142.992 26 143.445 26.84C143.912 27.6667 144.145 28.6267 144.145 29.72ZM138.745 26.2C137.945 26.2 137.265 26.44 136.705 26.92C136.158 27.3867 135.825 28.0133 135.705 28.8H141.765C141.658 28.0267 141.332 27.4 140.785 26.92C140.238 26.44 139.558 26.2 138.745 26.2ZM151.319 30.72H149.379V35H146.879V24.32H149.379V28.64H151.379L154.539 24.32H157.219L153.339 29.46L157.479 35H154.539L151.319 30.72Z" fill="black"/>
<path d="M67.972 54.072C67.324 54.072 66.744 53.9 66.232 53.556C65.728 53.212 65.332 52.72 65.044 52.08C64.764 51.432 64.624 50.672 64.624 49.8C64.624 48.928 64.764 48.172 65.044 47.532C65.332 46.884 65.728 46.388 66.232 46.044C66.744 45.7 67.324 45.528 67.972 45.528C68.62 45.528 69.196 45.7 69.7 46.044C70.212 46.388 70.612 46.884 70.9 47.532C71.188 48.172 71.332 48.928 71.332 49.8C71.332 50.672 71.188 51.432 70.9 52.08C70.612 52.72 70.212 53.212 69.7 53.556C69.196 53.9 68.62 54.072 67.972 54.072ZM67.972 53.28C68.46 53.28 68.888 53.144 69.256 52.872C69.632 52.6 69.924 52.204 70.132 51.684C70.34 51.164 70.444 50.536 70.444 49.8C70.444 49.064 70.34 48.436 70.132 47.916C69.924 47.396 69.632 47 69.256 46.728C68.888 46.456 68.46 46.32 67.972 46.32C67.484 46.32 67.052 46.456 66.676 46.728C66.308 47 66.02 47.396 65.812 47.916C65.604 48.436 65.5 49.064 65.5 49.8C65.5 50.536 65.604 51.164 65.812 51.684C66.02 52.204 66.308 52.6 66.676 52.872C67.052 53.144 67.484 53.28 67.972 53.28ZM72.7591 50.376H75.9031V51.12H72.7591V50.376ZM79.3739 45.6V54H78.5099V46.368H76.5299V45.6H79.3739ZM84.7298 54.072C84.0818 54.072 83.5018 53.9 82.9898 53.556C82.4858 53.212 82.0898 52.72 81.8018 52.08C81.5218 51.432 81.3818 50.672 81.3818 49.8C81.3818 48.928 81.5218 48.172 81.8018 47.532C82.0898 46.884 82.4858 46.388 82.9898 46.044C83.5018 45.7 84.0818 45.528 84.7298 45.528C85.3778 45.528 85.9538 45.7 86.4578 46.044C86.9698 46.388 87.3698 46.884 87.6578 47.532C87.9458 48.172 88.0898 48.928 88.0898 49.8C88.0898 50.672 87.9458 51.432 87.6578 52.08C87.3698 52.72 86.9698 53.212 86.4578 53.556C85.9538 53.9 85.3778 54.072 84.7298 54.072ZM84.7298 53.28C85.2178 53.28 85.6458 53.144 86.0138 52.872C86.3898 52.6 86.6818 52.204 86.8898 51.684C87.0978 51.164 87.2018 50.536 87.2018 49.8C87.2018 49.064 87.0978 48.436 86.8898 47.916C86.6818 47.396 86.3898 47 86.0138 46.728C85.6458 46.456 85.2178 46.32 84.7298 46.32C84.2418 46.32 83.8098 46.456 83.4338 46.728C83.0658 47 82.7778 47.396 82.5698 47.916C82.3618 48.436 82.2578 49.064 82.2578 49.8C82.2578 50.536 82.3618 51.164 82.5698 51.684C82.7778 52.204 83.0658 52.6 83.4338 52.872C83.8098 53.144 84.2418 53.28 84.7298 53.28ZM92.6751 54.072C92.0271 54.072 91.4471 53.9 90.9351 53.556C90.4311 53.212 90.0351 52.72 89.7471 52.08C89.4671 51.432 89.3271 50.672 89.3271 49.8C89.3271 48.928 89.4671 48.172 89.7471 47.532C90.0351 46.884 90.4311 46.388 90.9351 46.044C91.4471 45.7 92.0271 45.528 92.6751 45.528C93.3231 45.528 93.8991 45.7 94.4031 46.044C94.9151 46.388 95.3151 46.884 95.6031 47.532C95.8911 48.172 96.0351 48.928 96.0351 49.8C96.0351 50.672 95.8911 51.432 95.6031 52.08C95.3151 52.72 94.9151 53.212 94.4031 53.556C93.8991 53.9 93.3231 54.072 92.6751 54.072ZM92.6751 53.28C93.1631 53.28 93.5911 53.144 93.9591 52.872C94.3351 52.6 94.6271 52.204 94.8351 51.684C95.0431 51.164 95.1471 50.536 95.1471 49.8C95.1471 49.064 95.0431 48.436 94.8351 47.916C94.6271 47.396 94.3351 47 93.9591 46.728C93.5911 46.456 93.1631 46.32 92.6751 46.32C92.1871 46.32 91.7551 46.456 91.3791 46.728C91.0111 47 90.7231 47.396 90.5151 47.916C90.3071 48.436 90.2031 49.064 90.2031 49.8C90.2031 50.536 90.3071 51.164 90.5151 51.684C90.7231 52.204 91.0111 52.6 91.3791 52.872C91.7551 53.144 92.1871 53.28 92.6751 53.28ZM103.293 51.192H101.853V54H101.001V47.688H101.853V50.46H103.305L105.525 47.688H106.449L103.965 50.748L106.629 54H105.621L103.293 51.192ZM115.03 47.688V54H114.25V49.008L111.694 53.232H111.31L108.754 48.996V54H107.974V47.688H108.838L111.514 52.236L114.238 47.688H115.03ZM119.902 43.896H120.682L116.722 55.2H115.942L119.902 43.896ZM125.417 47.688V54H124.565V51.372C123.837 51.692 123.121 51.852 122.417 51.852C121.657 51.852 121.065 51.68 120.641 51.336C120.217 50.984 120.005 50.46 120.005 49.764V47.688H120.857V49.716C120.857 50.188 121.009 50.548 121.313 50.796C121.617 51.036 122.037 51.156 122.573 51.156C123.165 51.156 123.829 51 124.565 50.688V47.688H125.417ZM130.009 47.64C130.833 47.64 131.465 47.848 131.905 48.264C132.345 48.672 132.565 49.28 132.565 50.088V54H131.749V53.016C131.557 53.344 131.273 53.6 130.897 53.784C130.529 53.968 130.089 54.06 129.577 54.06C128.873 54.06 128.313 53.892 127.897 53.556C127.481 53.22 127.273 52.776 127.273 52.224C127.273 51.688 127.465 51.256 127.849 50.928C128.241 50.6 128.861 50.436 129.709 50.436H131.713V50.052C131.713 49.508 131.561 49.096 131.257 48.816C130.953 48.528 130.509 48.384 129.925 48.384C129.525 48.384 129.141 48.452 128.773 48.588C128.405 48.716 128.089 48.896 127.825 49.128L127.441 48.492C127.761 48.22 128.145 48.012 128.593 47.868C129.041 47.716 129.513 47.64 130.009 47.64ZM129.709 53.388C130.189 53.388 130.601 53.28 130.945 53.064C131.289 52.84 131.545 52.52 131.713 52.104V51.072H129.733C128.653 51.072 128.113 51.448 128.113 52.2C128.113 52.568 128.253 52.86 128.533 53.076C128.813 53.284 129.205 53.388 129.709 53.388ZM137.473 54.06C136.849 54.06 136.289 53.924 135.793 53.652C135.305 53.38 134.921 53 134.641 52.512C134.361 52.016 134.221 51.46 134.221 50.844C134.221 50.228 134.361 49.676 134.641 49.188C134.921 48.7 135.305 48.32 135.793 48.048C136.289 47.776 136.849 47.64 137.473 47.64C138.017 47.64 138.501 47.748 138.925 47.964C139.357 48.172 139.697 48.48 139.945 48.888L139.309 49.32C139.101 49.008 138.837 48.776 138.517 48.624C138.197 48.464 137.849 48.384 137.473 48.384C137.017 48.384 136.605 48.488 136.237 48.696C135.877 48.896 135.593 49.184 135.385 49.56C135.185 49.936 135.085 50.364 135.085 50.844C135.085 51.332 135.185 51.764 135.385 52.14C135.593 52.508 135.877 52.796 136.237 53.004C136.605 53.204 137.017 53.304 137.473 53.304C137.849 53.304 138.197 53.228 138.517 53.076C138.837 52.924 139.101 52.692 139.309 52.38L139.945 52.812C139.697 53.22 139.357 53.532 138.925 53.748C138.493 53.956 138.009 54.06 137.473 54.06Z" fill="black"/>
<path d="M37.5254 34.1048C37.5254 39.8876 32.813 44.5754 27 44.5754C21.187 44.5754 16.4746 39.8876 16.4746 34.1048C16.4746 28.322 21.187 23.6341 27 23.6341C32.813 23.6341 37.5254 28.322 37.5254 34.1048Z" fill="#C4C4C4"/>
<path d="M24.6744 35.465C24.0218 34.0604 24.627 32.397 26.0195 31.7568C27.4089 31.1179 29.0668 31.7408 29.7194 33.1454L43.4803 40.8174L28.223 36.9233C26.8652 37.4464 25.3029 36.8179 24.6744 35.465Z" fill="#030104"/>
<g filter="url(#filter0_d)">
<path d="M10.7365 19.7314C15.0808 15.3906 20.8566 13 27 13C33.1435 13 38.9194 15.3906 43.2636 19.7314C47.6077 24.0723 50 29.8437 50 35.9826C50 39.9463 49.0006 43.7557 47.1243 47.1266H42.8255L39.6813 45.3126L41.0699 42.9092L45.1128 45.2418C46.5411 42.463 47.348 39.3153 47.348 35.9826C47.348 35.3928 47.3212 34.8091 47.2717 34.2318L42.4511 35.0811L41.9689 32.3482L46.8462 31.4889C45.9747 27.6438 44.0096 24.2089 41.296 21.5288L37.9915 25.4642L35.864 23.6804L39.1936 19.7154C36.1404 17.4244 32.4238 15.9715 28.3885 15.6986V20.9618H25.6115V15.6986C21.5762 15.9717 17.8596 17.4245 14.8063 19.7155L18.136 23.6804L16.0086 25.4642L12.704 21.5287C9.99049 24.2089 8.02544 27.6438 7.1539 31.4888L12.0311 32.3483L11.5488 35.081L6.72849 34.2316C6.67905 34.809 6.65224 35.3925 6.65224 35.9823C6.65224 39.3153 7.45879 42.4631 8.88732 45.2417L12.9303 42.9093L14.3188 45.3126L11.1747 47.1264H6.87572C4.99926 43.7555 4 39.9461 4 35.9823C3.99989 29.8436 6.3925 24.0721 10.7365 19.7314Z" fill="#030104"/>
</g>
<path d="M293.17 18.88C294.78 18.88 296.227 19.195 297.51 19.825C298.793 20.4317 299.797 21.3067 300.52 22.45C301.243 23.5933 301.605 24.9117 301.605 26.405C301.605 27.9917 301.208 29.3917 300.415 30.605C299.622 31.795 298.548 32.7167 297.195 33.37C295.842 34.0233 294.325 34.35 292.645 34.35C289.285 34.35 286.672 33.3 284.805 31.2C282.962 29.1 282.04 26.09 282.04 22.17C282.04 19.4167 282.542 17.0717 283.545 15.135C284.548 13.175 285.948 11.6933 287.745 10.69C289.565 9.66333 291.665 9.15 294.045 9.15C295.305 9.15 296.483 9.29 297.58 9.57C298.7 9.82667 299.668 10.2117 300.485 10.725L298.805 14.155C297.592 13.3617 296.04 12.965 294.15 12.965C291.793 12.965 289.95 13.6883 288.62 15.135C287.29 16.5817 286.625 18.67 286.625 21.4V21.435C287.348 20.595 288.27 19.965 289.39 19.545C290.51 19.1017 291.77 18.88 293.17 18.88ZM292.4 30.78C293.823 30.78 294.978 30.4067 295.865 29.66C296.752 28.89 297.195 27.875 297.195 26.615C297.195 25.3317 296.752 24.3167 295.865 23.57C294.978 22.8233 293.788 22.45 292.295 22.45C290.825 22.45 289.623 22.8467 288.69 23.64C287.78 24.4333 287.325 25.4367 287.325 26.65C287.325 27.84 287.768 28.8317 288.655 29.625C289.565 30.395 290.813 30.78 292.4 30.78ZM314.413 19.615C316.677 19.895 318.403 20.665 319.593 21.925C320.783 23.185 321.378 24.76 321.378 26.65C321.378 28.0733 321.017 29.3683 320.293 30.535C319.57 31.7017 318.473 32.635 317.003 33.335C315.557 34.0117 313.783 34.35 311.683 34.35C309.933 34.35 308.242 34.105 306.608 33.615C304.998 33.1017 303.622 32.4017 302.478 31.515L304.438 27.98C305.325 28.7267 306.398 29.3217 307.658 29.765C308.942 30.185 310.26 30.395 311.613 30.395C313.223 30.395 314.483 30.0683 315.393 29.415C316.327 28.7383 316.793 27.8283 316.793 26.685C316.793 25.5417 316.35 24.655 315.463 24.025C314.6 23.3717 313.27 23.045 311.473 23.045H309.233V19.93L314.798 13.315H303.668V9.5H320.363V12.545L314.413 19.615ZM341.929 30.15V34H323.869V30.955L333.599 21.715C334.695 20.665 335.43 19.755 335.804 18.985C336.2 18.1917 336.399 17.41 336.399 16.64C336.399 15.4967 336.014 14.6217 335.244 14.015C334.474 13.4083 333.342 13.105 331.849 13.105C329.352 13.105 327.439 13.9567 326.109 15.66L322.924 13.21C323.88 11.9267 325.164 10.935 326.774 10.235C328.407 9.51167 330.227 9.15 332.234 9.15C334.894 9.15 337.017 9.78 338.604 11.04C340.19 12.3 340.984 14.015 340.984 16.185C340.984 17.515 340.704 18.7633 340.144 19.93C339.584 21.0967 338.51 22.4267 336.924 23.92L330.379 30.15H341.929Z" fill="black"/>
<path d="M356.12 29.72H354.18V34H351.68V23.32H354.18V27.64H356.18L359.34 23.32H362.02L358.14 28.46L362.28 34H359.34L356.12 29.72ZM374.543 34V26.92L370.943 32.88H369.863L366.323 26.9V34H364.043V23.32H366.663L370.463 30L374.443 23.32H376.783L376.803 34H374.543Z" fill="black"/>
<path d="M284.784 49.712C285.232 49.816 285.576 49.996 285.816 50.252C286.064 50.508 286.188 50.82 286.188 51.188C286.188 51.556 286.06 51.884 285.804 52.172C285.556 52.46 285.216 52.684 284.784 52.844C284.352 52.996 283.876 53.072 283.356 53.072C282.9 53.072 282.452 53.008 282.012 52.88C281.572 52.744 281.188 52.548 280.86 52.292L281.148 51.656C281.436 51.872 281.772 52.04 282.156 52.16C282.54 52.28 282.928 52.34 283.32 52.34C283.904 52.34 284.38 52.232 284.748 52.016C285.124 51.792 285.312 51.492 285.312 51.116C285.312 50.78 285.16 50.52 284.856 50.336C284.552 50.144 284.136 50.048 283.608 50.048H282.528V49.424H283.56C284.032 49.424 284.412 49.336 284.7 49.16C284.988 48.976 285.132 48.732 285.132 48.428C285.132 48.092 284.968 47.828 284.64 47.636C284.32 47.444 283.9 47.348 283.38 47.348C282.7 47.348 282.028 47.52 281.364 47.864L281.124 47.204C281.876 46.812 282.656 46.616 283.464 46.616C283.944 46.616 284.376 46.688 284.76 46.832C285.152 46.968 285.456 47.164 285.672 47.42C285.896 47.676 286.008 47.972 286.008 48.308C286.008 48.628 285.896 48.912 285.672 49.16C285.456 49.408 285.16 49.592 284.784 49.712ZM290.294 46.64C291.118 46.64 291.75 46.848 292.19 47.264C292.63 47.672 292.85 48.28 292.85 49.088V53H292.034V52.016C291.842 52.344 291.558 52.6 291.182 52.784C290.814 52.968 290.374 53.06 289.862 53.06C289.158 53.06 288.598 52.892 288.182 52.556C287.766 52.22 287.558 51.776 287.558 51.224C287.558 50.688 287.75 50.256 288.134 49.928C288.526 49.6 289.146 49.436 289.994 49.436H291.998V49.052C291.998 48.508 291.846 48.096 291.542 47.816C291.238 47.528 290.794 47.384 290.21 47.384C289.81 47.384 289.426 47.452 289.058 47.588C288.69 47.716 288.374 47.896 288.11 48.128L287.726 47.492C288.046 47.22 288.43 47.012 288.878 46.868C289.326 46.716 289.798 46.64 290.294 46.64ZM289.994 52.388C290.474 52.388 290.886 52.28 291.23 52.064C291.574 51.84 291.83 51.52 291.998 51.104V50.072H290.018C288.938 50.072 288.398 50.448 288.398 51.2C288.398 51.568 288.538 51.86 288.818 52.076C289.098 52.284 289.49 52.388 289.994 52.388ZM300.782 46.688V53H299.93V47.444H295.97V53H295.118V46.688H300.782ZM305.376 46.64C306.2 46.64 306.832 46.848 307.272 47.264C307.712 47.672 307.932 48.28 307.932 49.088V53H307.116V52.016C306.924 52.344 306.64 52.6 306.264 52.784C305.896 52.968 305.456 53.06 304.944 53.06C304.24 53.06 303.68 52.892 303.264 52.556C302.848 52.22 302.64 51.776 302.64 51.224C302.64 50.688 302.832 50.256 303.216 49.928C303.608 49.6 304.228 49.436 305.076 49.436H307.08V49.052C307.08 48.508 306.928 48.096 306.624 47.816C306.32 47.528 305.876 47.384 305.292 47.384C304.892 47.384 304.508 47.452 304.14 47.588C303.772 47.716 303.456 47.896 303.192 48.128L302.808 47.492C303.128 47.22 303.512 47.012 303.96 46.868C304.408 46.716 304.88 46.64 305.376 46.64ZM305.076 52.388C305.556 52.388 305.968 52.28 306.312 52.064C306.656 51.84 306.912 51.52 307.08 51.104V50.072H305.1C304.02 50.072 303.48 50.448 303.48 51.2C303.48 51.568 303.62 51.86 303.9 52.076C304.18 52.284 304.572 52.388 305.076 52.388ZM312.84 53.06C312.216 53.06 311.656 52.924 311.16 52.652C310.672 52.38 310.288 52 310.008 51.512C309.728 51.016 309.588 50.46 309.588 49.844C309.588 49.228 309.728 48.676 310.008 48.188C310.288 47.7 310.672 47.32 311.16 47.048C311.656 46.776 312.216 46.64 312.84 46.64C313.384 46.64 313.868 46.748 314.292 46.964C314.724 47.172 315.064 47.48 315.312 47.888L314.676 48.32C314.468 48.008 314.204 47.776 313.884 47.624C313.564 47.464 313.216 47.384 312.84 47.384C312.384 47.384 311.972 47.488 311.604 47.696C311.244 47.896 310.96 48.184 310.752 48.56C310.552 48.936 310.452 49.364 310.452 49.844C310.452 50.332 310.552 50.764 310.752 51.14C310.96 51.508 311.244 51.796 311.604 52.004C311.972 52.204 312.384 52.304 312.84 52.304C313.216 52.304 313.564 52.228 313.884 52.076C314.204 51.924 314.468 51.692 314.676 51.38L315.312 51.812C315.064 52.22 314.724 52.532 314.292 52.748C313.86 52.956 313.376 53.06 312.84 53.06ZM324.051 53L322.047 50.36L320.031 53H319.071L321.567 49.76L319.191 46.688H320.151L322.047 49.16L323.943 46.688H324.879L322.503 49.76L325.023 53H324.051ZM328.8 53.06C328.192 53.06 327.644 52.924 327.156 52.652C326.668 52.372 326.284 51.988 326.004 51.5C325.724 51.012 325.584 50.46 325.584 49.844C325.584 49.228 325.724 48.676 326.004 48.188C326.284 47.7 326.668 47.32 327.156 47.048C327.644 46.776 328.192 46.64 328.8 46.64C329.408 46.64 329.956 46.776 330.444 47.048C330.932 47.32 331.312 47.7 331.584 48.188C331.864 48.676 332.004 49.228 332.004 49.844C332.004 50.46 331.864 51.012 331.584 51.5C331.312 51.988 330.932 52.372 330.444 52.652C329.956 52.924 329.408 53.06 328.8 53.06ZM328.8 52.304C329.248 52.304 329.648 52.204 330 52.004C330.36 51.796 330.64 51.504 330.84 51.128C331.04 50.752 331.14 50.324 331.14 49.844C331.14 49.364 331.04 48.936 330.84 48.56C330.64 48.184 330.36 47.896 330 47.696C329.648 47.488 329.248 47.384 328.8 47.384C328.352 47.384 327.948 47.488 327.588 47.696C327.236 47.896 326.956 48.184 326.748 48.56C326.548 48.936 326.448 49.364 326.448 49.844C326.448 50.324 326.548 50.752 326.748 51.128C326.956 51.504 327.236 51.796 327.588 52.004C327.948 52.204 328.352 52.304 328.8 52.304ZM339.946 52.256V54.524H339.142V53H333.49V54.524H332.686V52.256H333.046C333.47 52.232 333.758 51.92 333.91 51.32C334.062 50.72 334.166 49.88 334.222 48.8L334.306 46.688H338.962V52.256H339.946ZM335.002 48.848C334.962 49.744 334.886 50.484 334.774 51.068C334.662 51.644 334.462 52.04 334.174 52.256H338.11V47.444H335.074L335.002 48.848ZM343.779 46.64C344.603 46.64 345.235 46.848 345.675 47.264C346.115 47.672 346.335 48.28 346.335 49.088V53H345.519V52.016C345.327 52.344 345.043 52.6 344.667 52.784C344.299 52.968 343.859 53.06 343.347 53.06C342.643 53.06 342.083 52.892 341.667 52.556C341.251 52.22 341.043 51.776 341.043 51.224C341.043 50.688 341.235 50.256 341.619 49.928C342.011 49.6 342.631 49.436 343.479 49.436H345.483V49.052C345.483 48.508 345.331 48.096 345.027 47.816C344.723 47.528 344.279 47.384 343.695 47.384C343.295 47.384 342.911 47.452 342.543 47.588C342.175 47.716 341.859 47.896 341.595 48.128L341.211 47.492C341.531 47.22 341.915 47.012 342.363 46.868C342.811 46.716 343.283 46.64 343.779 46.64ZM343.479 52.388C343.959 52.388 344.371 52.28 344.715 52.064C345.059 51.84 345.315 51.52 345.483 51.104V50.072H343.503C342.423 50.072 341.883 50.448 341.883 51.2C341.883 51.568 342.023 51.86 342.303 52.076C342.583 52.284 342.975 52.388 343.479 52.388Z" fill="black"/>
<g filter="url(#filter1_d)">
<path fill-rule="evenodd" clip-rule="evenodd" d="M254.311 23.508C255.005 24.439 256.243 25.1217 258.295 24.8469C261.897 24.3644 264.686 25.4456 266.358 27.5167C267.99 29.5368 268.364 32.2642 267.662 34.7102C266.952 37.1819 265.126 39.4474 262.258 40.583C259.394 41.717 255.667 41.6599 251.216 39.8717C247.349 38.3183 245.126 38.5701 243.929 39.2703C242.762 39.9534 242.078 41.3612 242.006 43.3528C241.935 45.3258 242.495 47.5733 243.458 49.3899C244.455 51.2703 245.676 52.3246 246.696 52.5294L246.105 55.4706C243.765 55.0006 241.958 52.9658 240.807 50.795C239.623 48.5604 238.916 45.7947 239.008 43.2447C239.099 40.7132 240.009 38.0882 242.414 36.6809C244.79 35.2906 248.119 35.3945 252.334 37.0879C256.281 38.6736 259.189 38.5716 261.154 37.7937C263.115 37.0173 264.313 35.5041 264.778 33.882C265.252 32.2343 264.954 30.5531 264.024 29.4017C263.136 28.3013 261.473 27.4481 258.693 27.8203C255.706 28.2203 253.332 27.216 251.905 25.3002C250.529 23.4527 250.194 20.9741 250.734 18.6548C251.28 16.3122 252.738 14.0164 255.122 12.4575C257.516 10.891 260.748 10.1294 264.744 10.6767L264.337 13.649C260.943 13.1841 258.463 13.8565 256.764 14.9681C255.053 16.0873 254.034 17.7138 253.656 19.3356C253.273 20.9807 253.567 22.5087 254.311 23.508Z" fill="black" stroke="black" stroke-width="3"/>
<path fill-rule="evenodd" clip-rule="evenodd" d="M264.513 12.361C264.053 12.298 263.607 12.2542 263.174 12.2284L263.197 11.8291C263.641 11.8555 264.098 11.9004 264.568 11.9647L264.513 12.361ZM260.487 12.3083C259.539 12.4294 258.676 12.6483 257.896 12.9451L257.754 12.5712C258.565 12.2628 259.459 12.0365 260.436 11.9115L260.487 12.3083ZM255.565 14.2222C254.825 14.7793 254.209 15.4236 253.714 16.1187L253.388 15.8868C253.906 15.1589 254.551 14.4848 255.325 13.9026L255.565 14.2222ZM252.538 18.492C252.267 19.3689 252.155 20.2601 252.197 21.1098L251.797 21.1294C251.753 20.2313 251.872 19.2936 252.156 18.374L252.538 18.492ZM252.862 23.6393C253.271 24.4114 253.863 25.0592 254.635 25.5108L254.433 25.856C253.592 25.364 252.949 24.6592 252.508 23.8265L252.862 23.6393ZM258.467 26.1354C259.015 26.062 259.537 26.0289 260.031 26.0327L260.028 26.4327C259.554 26.429 259.051 26.4607 258.52 26.5318C258.028 26.5978 257.561 26.6198 257.119 26.6016L257.135 26.202C257.552 26.2191 257.996 26.1984 258.467 26.1354ZM263.089 26.633C264.128 27.0834 264.944 27.7615 265.535 28.5791L265.21 28.8134C264.661 28.0538 263.903 27.4217 262.93 27.0001L263.089 26.633ZM266.651 31.5C266.773 32.5216 266.666 33.5879 266.334 34.6067L265.954 34.4827C266.268 33.5175 266.369 32.5097 266.254 31.5475L266.651 31.5ZM247.694 37.5255C246.643 37.376 245.732 37.3912 244.949 37.5384L244.875 37.1452C245.708 36.9886 246.664 36.975 247.75 37.1295L247.694 37.5255ZM264.774 37.3109C264.108 38.0526 263.272 38.6904 262.269 39.1628L262.098 38.8008C263.053 38.3514 263.846 37.746 264.476 37.0438L264.774 37.3109ZM251.701 38.6654C251.246 38.4826 250.807 38.3217 250.385 38.1815L250.511 37.8019C250.942 37.9448 251.388 38.1086 251.85 38.2942C252.338 38.4904 252.814 38.6632 253.278 38.8138L253.154 39.1943C252.682 39.0407 252.197 38.8648 251.701 38.6654ZM242.539 38.6826C241.876 39.2772 241.407 40.0545 241.108 40.95L240.728 40.8233C241.045 39.8745 241.549 39.0338 242.272 38.3848L242.539 38.6826ZM259.269 39.9792C258.32 40.08 257.283 40.0628 256.161 39.9044L256.217 39.5084C257.31 39.6625 258.313 39.6785 259.226 39.5814L259.269 39.9792ZM240.7 43.6573C240.697 44.555 240.804 45.4873 241.005 46.4081L240.614 46.4934C240.408 45.5472 240.297 44.5858 240.3 43.6561L240.7 43.6573ZM241.854 49.0486C242.235 49.9309 242.697 50.748 243.22 51.4495L242.899 51.6885C242.356 50.959 241.879 50.1143 241.487 49.2074L241.854 49.0486ZM245.199 53.3144C245.602 53.5524 246.017 53.719 246.44 53.8039L246.361 54.1961C245.888 54.1012 245.431 53.9163 244.996 53.6588L245.199 53.3144Z" fill="white" stroke="black" stroke-width="0.4" stroke-dasharray="3 3"/>
<path d="M250 54.5C250 56.1569 248.657 57.5 247 57.5C245.343 57.5 244 56.1569 244 54.5C244 52.8431 245.343 51.5 247 51.5C248.657 51.5 250 52.8431 250 54.5Z" fill="#C4C4C4" stroke="black"/>
<path d="M248 54.5C248 55.0523 247.552 55.5 247 55.5C246.448 55.5 246 55.0523 246 54.5C246 53.9477 246.448 53.5 247 53.5C247.552 53.5 248 53.9477 248 54.5Z" fill="white" stroke="black"/>
<path d="M269 11.5C269 13.1569 267.657 14.5 266 14.5C264.343 14.5 263 13.1569 263 11.5C263 9.84315 264.343 8.5 266 8.5C267.657 8.5 269 9.84315 269 11.5Z" fill="#C4C4C4" stroke="black"/>
<path d="M267 11.5C267 12.0523 266.552 12.5 266 12.5C265.448 12.5 265 12.0523 265 11.5C265 10.9477 265.448 10.5 266 10.5C266.552 10.5 267 10.9477 267 11.5Z" fill="white" stroke="black"/>
</g>
<defs>
<filter id="filter0_d" x="0" y="13" width="54" height="42.1266" filterUnits="userSpaceOnUse" color-interpolation-filters="sRGB">
<feFlood flood-opacity="0" result="BackgroundImageFix"/>
<feColorMatrix in="SourceAlpha" type="matrix" values="0 0 0 0 0 0 0 0 0 0 0 0 0 0 0 0 0 0 127 0"/>
<feOffset dy="4"/>
<feGaussianBlur stdDeviation="2"/>
<feColorMatrix type="matrix" values="0 0 0 0 0 0 0 0 0 0 0 0 0 0 0 0 0 0 0.25 0"/>
<feBlend mode="normal" in2="BackgroundImageFix" result="effect1_dropShadow"/>
<feBlend mode="normal" in="SourceGraphic" in2="effect1_dropShadow" result="shape"/>
</filter>
<filter id="filter1_d" x="233.5" y="8" width="40" height="58" filterUnits="userSpaceOnUse" color-interpolation-filters="sRGB">
<feFlood flood-opacity="0" result="BackgroundImageFix"/>
<feColorMatrix in="SourceAlpha" type="matrix" values="0 0 0 0 0 0 0 0 0 0 0 0 0 0 0 0 0 0 127 0"/>
<feOffset dy="4"/>
<feGaussianBlur stdDeviation="2"/>
<feColorMatrix type="matrix" values="0 0 0 0 0 0 0 0 0 0 0 0 0 0 0 0 0 0 0.25 0"/>
<feBlend mode="normal" in2="BackgroundImageFix" result="effect1_dropShadow"/>
<feBlend mode="normal" in="SourceGraphic" in2="effect1_dropShadow" result="shape"/>
</filter>
</defs>
</svg>
